<svg width="786" height="631" viewBox="0 0 786 631" fill="none" xmlns="http://www.w3.org/2000/svg">
<path d="M431.859 221.765C447.475 222.926 463.137 223.454 478.8 223.348C482.803 223.283 503.32 221.342 505.059 222.668C506.156 230.674 496.147 225.139 491.749 230.41C486.499 236.707 488.045 248.023 488.045 256.174L488.091 290.09L488.018 403.817C487.665 442.84 469.953 474.808 426.416 474.352C415.018 474.233 404.529 468.375 404.682 455.886C404.79 447.05 412.067 441.182 420.598 441.616C427.806 442.134 432.626 448.014 435.351 454.289C437.086 458.285 438.936 466.848 444.462 467.228C447.156 467.239 450.089 463.862 451.148 461.651C454.771 454.078 455.024 444.632 455.531 436.411C455.991 428.965 455.799 421.438 455.792 414.027L455.746 375.924L455.811 257.319C455.799 250.218 455.903 241.583 454.088 234.592C453.877 233.772 452.238 231.801 451.555 231.143C446.953 226.705 437.903 227.157 431.778 227.195L431.859 221.765Z" fill="#15100F" fill-opacity="0" data-target-opacity="1" stroke="#15100F" stroke-width="0.5" stroke-linecap="round" stroke-linejoin="round"/>
<path d="M268.84 132.032C281.834 131.862 294.735 132.925 307.792 133.166C324.971 133.484 341.413 132.181 358.505 132.022L358.395 137.664C358.162 137.644 357.929 137.629 357.696 137.62C349.934 137.287 338.158 137.151 332.247 142.628C326.879 147.601 326.65 158.923 326.471 165.895C326.136 178.943 326.266 192.26 326.29 205.326L326.315 269.225L326.296 315.074C326.297 324.606 326.193 333.678 326.806 343.207C328.088 363.142 342.919 361.538 358.421 361.585C358.476 363.595 358.576 365.375 358.338 367.378L268.328 367.316C268.399 365.495 268.481 363.675 268.573 361.856C283.877 360.324 298.454 364.406 300.548 343.181C301.413 334.41 301.202 326.173 301.202 317.382L301.189 280.473L301.167 166.192C300.899 138.949 294.643 137.043 268.862 137.672C268.91 135.814 268.861 133.896 268.84 132.032Z" fill="#15100F" fill-opacity="0" data-target-opacity="1" stroke="#15100F" stroke-width="0.5" stroke-linecap="round" stroke-linejoin="round"/>
<path d="M436.687 195.198L437.12 196.033C432.269 199.23 427.894 203.063 423.584 206.924C422.172 208.187 420.188 210.467 418.971 211.358L418.825 210.923C421.301 206.517 432.354 198.37 436.687 195.198Z" fill="#A2A19F" fill-opacity="0" data-target-opacity="0.866667" stroke="#A2A19F" stroke-width="0.5" stroke-linecap="round" stroke-linejoin="round"/>
<path d="M436.687 195.198C437.965 194.212 439.899 192.468 441.392 192.306C441.185 193.419 440.179 193.996 439.177 194.676C438.498 195.136 437.811 195.588 437.12 196.033L436.687 195.198Z" fill="#A2A19F" fill-opacity="0" data-target-opacity="0.352941" stroke="#A2A19F" stroke-width="0.5" stroke-linecap="round" stroke-linejoin="round"/>
<path d="M497.21 560.427C499.563 559.74 500.081 559.782 502.391 559.629C509.254 559.172 514.769 567.643 513.107 573.845C508.11 592.461 481.214 582.55 490.889 564.787C491.262 564.104 492.966 562.515 493.614 561.87C495 561.083 495.621 560.581 497.21 560.427ZM495.322 562.749C493.392 567.455 493.108 572.563 495.238 577.327C496.849 580.935 498.565 581.886 502.054 583.092C502.33 583.019 502.606 582.938 502.879 582.857C511.522 580.205 509.944 564.73 501.125 560.385C498.523 560.792 497.264 560.834 495.322 562.749Z" fill="#241C17" fill-opacity="0" data-target-opacity="1" stroke="#241C17" stroke-width="0.5" stroke-linecap="round" stroke-linejoin="round"/>
<path d="M493.614 561.87C495 561.083 495.621 560.581 497.21 560.427L501.125 560.385C498.523 560.792 497.264 560.834 495.322 562.749L493.614 561.87Z" fill="#15100F" fill-opacity="0" data-target-opacity="1" stroke="#15100F" stroke-width="0.5" stroke-linecap="round" stroke-linejoin="round"/>
<path d="M387.512 287.019L388.372 286.769C388.068 287.85 387.289 292.484 387.136 293.679C386.852 295.749 385.735 297.327 384.534 299.016L384.184 299.271C380.598 301.863 378.028 302.37 374.468 304.035C371.818 305.274 361.927 307.153 360.907 308.536C366.276 308.556 381.683 303.094 385.551 299.27C386.771 298.019 388.406 294.228 389.093 292.553C390.544 290.645 394.297 287.827 396.27 286.324L396.063 286.859C394.919 289.736 387.731 299.799 389.2 301.74C402.203 318.943 428.508 313.591 446.661 309.418C448.772 308.935 452.556 307.181 453.827 307.376L453.742 307.936C452.284 308.839 442.67 311.529 440.843 311.746C438.583 311.852 431.747 313.296 428.984 313.687C413.467 315.883 401.543 314.666 389.174 304.374L388.993 304.772C390.463 307.775 399.567 312.307 402.752 313.438C413.487 317.249 431.667 315.546 442.589 312.646C445.967 312.02 450.883 310.313 454.084 310.264L454.176 310.586C453.224 311.298 442.071 313.668 439.792 314.142C426.985 316.807 412.911 318.656 400.438 313.617C397.057 312.252 391.661 308.444 388.387 306.245C387.969 304.672 386.963 302.309 386.337 300.731C385.274 301.199 383.912 302.06 382.879 302.67C382.773 304.142 382.904 305.842 382.062 306.92L381.56 306.704L382.269 306.623C380.425 305.292 382.482 305.333 381.404 303.571C380.243 303.602 376.687 305.252 375.081 305.911C370.155 307.931 353.665 312.763 349.161 310.627C350.483 310.406 350.944 310.328 352.201 309.898L352.339 309.506C350.875 309.029 349.871 309.156 348.733 310.15C345.946 309.998 335.734 308.952 333.306 308.041L333.312 307.34C334.137 307.117 344.26 309.847 348.272 308.767C347.127 307.442 335.961 307.954 333.283 305.516L333.515 305.079C337.187 306.328 337.442 306.436 341.581 306.61C344.627 306.737 349.255 308.451 352.333 308.192C361.843 307.391 372.093 304.584 380.546 300.16C386.142 297.086 386.149 292.412 387.393 287.477L387.512 287.019Z" fill="#15100F" fill-opacity="0" data-target-opacity="0.964706" stroke="#15100F" stroke-width="0.5" stroke-linecap="round" stroke-linejoin="round"/>
<path d="M457.384 547.742C456.103 547.55 453.942 547.488 453.213 546.748L453.639 546.283C455.807 546.253 465.402 545.926 466.484 546.709C465.54 547.346 464.051 547.565 462.896 547.83L462.838 548.379C461.618 560.504 464.089 577.507 461.622 589.547C461.061 592.276 458.843 594.622 456.859 596.502L456.816 594.971C458.16 586.335 457.342 573.876 457.645 564.849C457.757 561.555 457.822 550.39 457.384 547.742Z" fill="#241C17" fill-opacity="0" data-target-opacity="1" stroke="#241C17" stroke-width="0.5" stroke-linecap="round" stroke-linejoin="round"/>
<path d="M543.633 564.449C545.806 562.5 548.362 560.504 551.171 559.663C562.996 556.124 558.332 575.822 559.791 581.326C560.658 582.101 563.391 582.739 564.907 583.318C561.902 583.199 554.606 583.66 552.449 582.831C552.606 581.295 553.155 583.088 554.94 581.422C555.623 578.267 555.558 568.871 554.894 565.662L554.805 565.252C551.336 560.707 547.817 562.753 543.764 565.202C543.772 569.405 543.534 576.839 544.082 581.196C544.224 582.324 546.005 581.756 546.942 582.788C545.598 583.395 537.923 583.318 536.41 583.003L536.395 582.55C541.572 581.476 539.193 576.137 539.496 572.46C540.552 559.652 537.404 564.914 534.722 563.283C535.67 561.97 540.275 560.331 542.006 559.625L542.708 559.947C543.587 561.39 543.507 562.726 543.633 564.449Z" fill="#241C17" fill-opacity="0" data-target-opacity="1" stroke="#241C17" stroke-width="0.5" stroke-linecap="round" stroke-linejoin="round"/>
<path d="M260.086 564.457C261.468 563.202 262.616 562.139 264.222 561.241C279.51 552.697 275.112 573.139 276.218 581.084C276.329 581.883 280.085 582.919 281.093 583.326C276.958 583.065 272.851 583.383 268.758 583.134L268.515 582.804C269.219 582.428 271.544 581.43 271.589 580.697C271.831 576.801 272.331 568.126 270.964 564.737C267.085 560.534 264.41 562.837 260.142 565.252C259.851 568.437 259.926 577.388 260.128 580.555C260.796 581.817 261.364 582.002 262.618 582.715L263.069 582.973C262.217 583.322 253.73 583.402 252.742 582.965L252.707 582.547C253.955 582.309 253.963 582.286 255.119 581.725C256.587 580.048 256.569 565.551 254.857 563.405C253.72 563.11 250.73 563.866 249.128 564.085C252.245 562.127 255.095 561.026 258.46 559.633L259.313 560.112C260.045 561.509 259.979 562.857 260.086 564.457Z" fill="#241C17" fill-opacity="0" data-target-opacity="1" stroke="#241C17" stroke-width="0.5" stroke-linecap="round" stroke-linejoin="round"/>
<path d="M598.047 571.139C598.039 567.424 598.765 556.973 591.737 561.855C590.417 564.054 590.03 567.121 587.796 568.361C586.192 568.307 585.992 567.259 585.47 565.877C586.038 561.179 598.446 557.464 600.987 561.563C603.071 564.922 601.965 572.567 602.115 576.701C602.326 582.573 603.493 579.568 606.352 580.532C604.464 582.266 601.286 584.374 598.907 582.489C598.623 581.741 598.3 580.535 597.775 580.106C594.877 581.998 591.503 584.308 587.869 583.107C585.516 582.332 584.875 579.718 585.973 577.664C587.654 574.521 591.342 573.389 594.535 572.471C595.472 572.118 597.203 571.531 598.047 571.139ZM597.433 579.645C598.362 578.136 598.772 574.087 597.226 572.64L595.357 573.239C592.313 574.03 589.792 575.415 590.268 578.958C592.098 581.963 594.781 580.781 597.433 579.645Z" fill="#241C17" fill-opacity="0" data-target-opacity="1" stroke="#241C17" stroke-width="0.5" stroke-linecap="round" stroke-linejoin="round"/>
<path d="M597.775 580.105C594.877 581.998 591.503 584.308 587.869 583.107C585.516 582.332 584.875 579.718 585.973 577.664C587.654 574.521 591.342 573.389 594.535 572.471L595.357 573.239C592.313 574.03 589.792 575.415 590.268 578.958C592.098 581.963 594.781 580.781 597.433 579.645L597.775 580.105Z" fill="#241C17" fill-opacity="0" data-target-opacity="1" stroke="#241C17" stroke-width="0.5" stroke-linecap="round" stroke-linejoin="round"/>
<path d="M385.244 560.239C389.308 559.517 389.887 559.36 393.833 560.561C396.634 563.164 396.922 564.346 397.352 568.299C393.253 568.046 389.204 568.257 385.102 568.391C383.835 568.418 382.611 568.203 381.78 568.844C380.024 574.928 384.718 581.825 391.649 581.418C391.71 582.071 391.71 582.627 391.922 583.234C389.554 583.994 386.391 584.07 384.035 583.26C381.243 582.282 379.002 580.155 377.875 577.423C375.008 570.641 378.356 562.918 385.244 560.239ZM384.553 567.251C387.086 566.537 391.365 568.341 392.171 565.586C391.534 561.337 388.966 560.515 385.313 560.938C383.431 562.258 381.689 564.235 382.322 566.66C383.031 567.297 383.583 567.201 384.553 567.251Z" fill="#241C17" fill-opacity="0" data-target-opacity="1" stroke="#241C17" stroke-width="0.5" stroke-linecap="round" stroke-linejoin="round"/>
<path d="M385.244 560.239C389.308 559.517 389.887 559.36 393.833 560.561C396.634 563.164 396.922 564.346 397.352 568.299C393.253 568.046 389.204 568.257 385.102 568.391L384.553 567.251C387.086 566.537 391.365 568.341 392.171 565.586C391.534 561.337 388.966 560.515 385.313 560.938L385.244 560.239Z" fill="#241C17" fill-opacity="0" data-target-opacity="1" stroke="#241C17" stroke-width="0.5" stroke-linecap="round" stroke-linejoin="round"/>
<path d="M673.523 560.197C690.149 558.047 679.545 574.479 683.563 580.056C684.822 580.766 686.814 580.136 688.56 580.102C686.867 580.973 682.661 583.487 681.279 583.506C678.489 581.637 679.848 581.437 678.424 580.251C676.728 581.226 674.183 582.831 672.379 583.145C662.746 584.826 665.337 574.912 672.21 573.204C674.007 572.759 675.208 572.183 677.223 572.095L678.14 571.416C679.418 568.633 679.061 563.547 676.728 561.294C675.384 560.615 675.108 560.776 673.527 560.991L673.523 560.197ZM678.278 579.514C678.931 578.183 678.731 574.394 678.263 572.897L677.345 572.679C674.329 573.677 669.996 575.005 670.549 579.15C672.514 582.201 675.645 580.689 678.278 579.514Z" fill="#241C17" fill-opacity="0" data-target-opacity="1" stroke="#241C17" stroke-width="0.5" stroke-linecap="round" stroke-linejoin="round"/>
<path d="M678.424 580.251C676.728 581.226 674.183 582.831 672.379 583.145C662.746 584.826 665.337 574.912 672.21 573.204C674.007 572.759 675.208 572.183 677.223 572.095L677.345 572.679C674.329 573.676 669.996 575.005 670.549 579.15C672.514 582.201 675.645 580.689 678.278 579.514L678.424 580.251Z" fill="#241C17" fill-opacity="0" data-target-opacity="1" stroke="#241C17" stroke-width="0.5" stroke-linecap="round" stroke-linejoin="round"/>
<path d="M182.764 560.431C200.291 557.138 188.612 575.02 193.545 580.205C195.712 580.635 196.727 580.267 198.814 580.24C195.965 581.403 192.323 583.836 190.044 583.019C189.016 582.005 189.017 581.602 188.578 580.159C186.251 581.238 184.128 582.777 181.693 583.399C176.545 584.658 174.106 580.762 177.162 576.54C179.112 573.849 183.628 572.494 186.811 572.099L187.785 571.416C188.842 568.253 189.003 563.643 186.406 561.179C185.095 560.534 184.53 560.834 182.997 561.137L182.764 560.431ZM187.551 579.718C188.567 578.213 188.583 574.129 187.846 572.51L187.099 572.598C183.893 573.73 180.003 575.047 180.513 579.315C182.547 581.952 184.915 580.812 187.551 579.718Z" fill="#241C17" fill-opacity="0" data-target-opacity="1" stroke="#241C17" stroke-width="0.5" stroke-linecap="round" stroke-linejoin="round"/>
<path d="M65.0054 546.337C69.5668 546.095 76.5229 546.099 81.0455 546.467C79.2083 546.89 76.5176 547.247 75.0388 548.175C73.7596 552.06 74.5675 574.333 74.5898 579.66C74.6044 583.095 76.8948 581.349 78.8134 582.957C76.9309 583.126 66.2032 583.56 65.3424 582.658C66.2512 582.401 68.8015 581.602 68.9082 580.927C69.7184 575.818 69.8304 551.588 68.9638 548.199C67.9341 547.258 67.1907 547.558 65.4111 547.128L65.0054 546.337Z" fill="#241C17" fill-opacity="0" data-target-opacity="1" stroke="#241C17" stroke-width="0.5" stroke-linecap="round" stroke-linejoin="round"/>
<path d="M147.695 540.775L148.494 540.814C149.728 542.821 148.345 574.521 148.942 579.522C149.271 582.27 148.888 581.468 151.798 582.405L151.939 582.88C149.684 583.353 142.596 583.587 140.571 582.501C141.325 582.405 144.069 582.216 144.156 581.192C145.06 570.591 144.316 559.686 144.481 549.016C144.513 546.901 144.763 545.047 142.613 544.276C141.544 544.487 141.362 544.548 140.242 544.537L140.434 543.988C142.082 542.814 145.687 541.562 147.695 540.775Z" fill="#241C17" fill-opacity="0" data-target-opacity="1" stroke="#241C17" stroke-width="0.5" stroke-linecap="round" stroke-linejoin="round"/>
<path d="M635.117 554.961L634.676 560.423C636.821 560.385 641.411 559.878 642.843 561.617C641.384 563.156 637.013 562.431 634.952 562.258C634.875 566.925 634.3 574.475 635.428 578.873C635.858 580.543 637.224 581.065 638.694 581.737L639.135 583.449C623.807 585.993 633.336 566.798 630.074 562.553C628.95 562.254 628.593 562.139 627.522 561.69C627.76 560.845 628.865 560.738 630.009 560.131C631.974 559.084 633.674 556.715 635.117 554.961Z" fill="#241C17" fill-opacity="0" data-target-opacity="1" stroke="#241C17" stroke-width="0.5" stroke-linecap="round" stroke-linejoin="round"/>
<path d="M371.959 494.629L372.526 494.767L372.852 495.308C372.378 498.448 363.816 510.538 368.633 512.081C372.639 511.145 374.467 506.681 376.585 504.812C377.625 507.713 370.959 512.484 368.227 513.305C366.328 512.864 366.916 513.236 365.671 512.05C365.026 510.519 365.212 509.168 365.244 507.483C363.168 510.108 360.817 513.701 357.074 512.119C354.847 509.344 356.434 505.802 358.838 503.61C361.692 501.016 364.301 500.966 367.939 501.054C369.01 498.69 369.981 496.341 371.959 494.629ZM360.225 511.567C362.69 509.191 365.511 505.848 366.993 502.747L366.983 502.109C365.735 501.994 365.143 501.937 363.901 501.998C361.385 503.464 355.982 508.746 357.942 511.701C359.083 512.024 359.118 511.916 360.225 511.567Z" fill="#15100F" fill-opacity="0" data-target-opacity="1" stroke="#15100F" stroke-width="0.5" stroke-linecap="round" stroke-linejoin="round"/>
<path d="M474.62 180.053C467.421 197.948 438.356 217.683 418.729 213.434C411.879 222.251 401.631 238.568 401.881 249.853L402.257 250.586C405.469 250.383 407.761 247.272 410.512 252.411L410.324 253.116C408.543 252.159 408.977 250.073 405.569 250.871C403.926 251.256 402.66 252.333 401.01 252.168C399.831 249.693 400.549 250.308 398.02 249.274C390.832 246.339 390.928 250.888 387.692 255.508L387.128 255.227C388.54 251.642 390.375 249.137 393.545 247.036C395.095 247.599 396.899 248.126 398.492 248.628C399.336 245.178 400.127 241.712 401.232 238.338L401.919 238.811C401.251 240.969 399.593 247.037 399.854 248.975C401.071 248.647 401.973 244.046 402.326 242.656C405.297 230.961 410.942 222.296 417.946 212.728C418.468 212.485 426.493 213.144 428.243 212.914C447.041 210.445 465.267 196.696 473.78 180.046L474.62 180.053Z" fill="#93908F" fill-opacity="0" data-target-opacity="0.882353" stroke="#93908F" stroke-width="0.5" stroke-linecap="round" stroke-linejoin="round"/>
<path d="M297.285 559.94C301.365 560.412 306.595 559.871 310.011 560.496L309.832 560.968L307.797 561.129C305.173 562.995 312.437 575.899 313.835 578.125L314.337 578.052L315.658 578.006C314.634 580.635 312.95 585.371 311.808 587.77L311.744 585.606C311.815 585.187 311.993 584.316 311.763 583.863C308.128 576.728 304.884 569.305 301.283 562.189C300.964 561.559 298.011 560.27 297.285 559.94Z" fill="#241C17" fill-opacity="0" data-target-opacity="1" stroke="#241C17" stroke-width="0.5" stroke-linecap="round" stroke-linejoin="round"/>
<path d="M491.557 299.628L490.398 299L490.379 298.35C493.821 295.096 516.968 293.332 521.792 294.944C524.835 295.771 527.15 294.877 530.266 295.308C537.98 296.375 545.007 298.629 552.261 301.371C554.468 302.693 555.964 303.527 557.91 305.194C555.558 304.348 553.658 303.58 551.363 302.577C548.005 301.841 541.949 299.276 537.669 298.271C521.093 294.381 507.868 296.241 491.557 299.628Z" fill="#15100F" fill-opacity="0" data-target-opacity="0.0117647" stroke="#15100F" stroke-width="0.5" stroke-linecap="round" stroke-linejoin="round"/>
<path d="M225.691 559.663C225.733 559.686 225.783 559.698 225.816 559.732C227.175 561.072 226.381 576.098 226.387 578.881C226.39 580.182 226.44 581.195 227.385 582.14C228.442 582.155 229 582.067 229.95 582.543L229.913 582.969C227.59 583.533 221.394 583.153 218.636 583.072L218.75 582.497C219.746 582.282 220.412 582.109 221.39 581.817C222.618 580.013 222.589 565.255 221.37 563.686C219.87 563.121 219.643 563.44 217.895 563.666L217.776 563.19C219.324 561.755 223.607 560.412 225.691 559.663Z" fill="#241C17" fill-opacity="0" data-target-opacity="1" stroke="#241C17" stroke-width="0.5" stroke-linecap="round" stroke-linejoin="round"/>
<path d="M283.577 289.63C283.028 288.808 275.367 284.444 273.744 283.257C263.326 275.642 245.099 261.705 239.294 250.401L239.611 250.235C242.669 252.415 248.189 259.78 251.64 263.264C262.751 274.497 275.595 283.871 289.681 291.027C291.426 291.935 296.373 294.495 298.141 294.831L299.339 295.176L299.538 295.755C295.781 297.692 286.821 291.888 283.577 289.63Z" fill="#15100F" fill-opacity="0" data-target-opacity="0.054902" stroke="#15100F" stroke-width="0.5" stroke-linecap="round" stroke-linejoin="round"/>
<path d="M283.577 289.63C274.953 287.254 238.408 257.703 238.361 249.87C238.957 248.842 238.54 249.223 239.725 248.769C242.174 250.512 244.915 254.366 247.002 256.807C257.261 268.808 270.179 279.163 283.725 287.219C287.232 289.306 295.56 292.705 298.141 294.83C296.373 294.495 291.426 291.935 289.681 291.027C275.595 283.871 262.751 274.496 251.64 263.264C248.189 259.78 242.669 252.415 239.611 250.235L239.294 250.401C245.099 261.705 263.326 275.642 273.744 283.257C275.368 284.444 283.028 288.808 283.577 289.63Z" fill="#858172" fill-opacity="0" data-target-opacity="0.92549" stroke="#858172" stroke-width="0.5" stroke-linecap="round" stroke-linejoin="round"/>
<path d="M718.806 582.082C724.317 571.017 703.543 574.16 709.875 562.753C711.084 560.573 714.308 559.913 716.649 559.425L716.573 560.465C715.141 560.638 714.116 560.577 713.065 561.49C708.214 569.762 726.685 569.769 723.185 578.539C722.587 580.044 720.572 581.902 719.278 582.792L718.806 582.082Z" fill="#241C17" fill-opacity="0" data-target-opacity="1" stroke="#241C17" stroke-width="0.5" stroke-linecap="round" stroke-linejoin="round"/>
<path d="M113.443 582.24C119.181 573.765 105.414 573.573 103.702 567.731C102.17 562.504 107.497 560.174 111.411 559.402L111.349 560.462C110.101 560.581 108.5 560.538 107.742 561.678C103.364 568.245 117.576 569.915 118.331 575.741C118.751 578.985 116.526 581.1 114.591 582.692L113.443 582.24Z" fill="#241C17" fill-opacity="0" data-target-opacity="1" stroke="#241C17" stroke-width="0.5" stroke-linecap="round" stroke-linejoin="round"/>
<path d="M396.42 366.906L396.949 367.421C395.456 369.452 394.819 369.909 392.589 371.094C393.211 375.57 396.047 392.126 395.736 395.469L394.865 393.415C393.998 389.132 393.875 384.956 392.11 381.074C392.612 387.819 395.498 404.519 397.771 410.637C397.402 411.394 397.659 412.913 397.736 413.846C394.904 406.216 393.342 397.338 392.044 389.27C391.288 384.561 390.962 377.852 389.703 373.294L388.602 372.734L387.404 372.805C389.469 372.315 391.446 370.169 392.444 368.38L392.336 370.138C394.558 369.308 394.992 368.682 396.42 366.906ZM391.864 377.044C392.033 375.329 392.459 372.454 390.985 371.337C390.551 372.82 390.778 375.908 391.864 377.044Z" fill="#4D5250" fill-opacity="0" data-target-opacity="0.960784" stroke="#4D5250" stroke-width="0.5" stroke-linecap="round" stroke-linejoin="round"/>
<path d="M390.985 371.337C392.459 372.454 392.033 375.329 391.864 377.044C390.778 375.908 390.551 372.82 390.985 371.337Z" fill="#B6ACB8" fill-opacity="0" data-target-opacity="0.0431373" stroke="#B6ACB8" stroke-width="0.5" stroke-linecap="round" stroke-linejoin="round"/>
<path d="M330.917 489.831C335.281 489.244 336.007 489.827 339.668 491.977C340.854 490.963 341.016 490.695 342.469 490.33L342.788 490.587C341.953 493.623 332.133 500.175 331.572 503.679C332.749 504.32 333.966 503.81 335.485 503.507L335.014 504.224C333.508 504.942 332.029 504.7 330.313 504.643C329.47 506.017 325.253 514.699 325.174 514.783C323.223 509.767 327.778 507.153 327.516 504.796C326.737 504.704 326.382 504.754 325.756 504.301C326.915 502.466 327.298 504.67 328.961 502.846C332.603 498.855 334.631 496.402 338.899 492.963C327.99 488.138 330.736 494.114 327.497 496.041L327.113 495.596C327.108 492.019 328.017 491.451 330.917 489.831Z" fill="#15100F" fill-opacity="0" data-target-opacity="1" stroke="#15100F" stroke-width="0.5" stroke-linecap="round" stroke-linejoin="round"/>
<path d="M417.447 211.235L417.946 212.728C410.942 222.296 405.297 230.961 402.326 242.656C401.973 244.046 401.071 248.647 399.854 248.975C399.594 247.037 401.251 240.969 401.919 238.811C401.961 237.839 402.656 235.987 402.986 234.983C402.506 233.708 402.161 232.765 401.551 231.539C401.574 231.111 401.624 230.526 401.62 230.099C401.547 225.378 403.9 221.553 404.483 216.36L405.546 216.161C405.204 222.87 402.767 224.944 403.27 231.494L403.619 232.075C406.222 228.341 408.478 224.418 411 220.658C413.164 217.434 415.34 214.531 417.447 211.235Z" fill="#15100F" fill-opacity="0" data-target-opacity="0.0431373" stroke="#15100F" stroke-width="0.5" stroke-linecap="round" stroke-linejoin="round"/>
<path d="M337.434 219.192L338.016 219.083L338.272 219.416C337.969 224.62 337.598 235.576 340.723 239.626C344.39 244.38 345.694 245.281 348.163 251.157C350.377 252.817 352.74 254.269 355.222 255.493C357.768 260.705 359.274 265.251 361.013 270.753C361.473 272.207 362.208 273.491 362.579 274.944C360.504 273.267 356.561 260.295 355.15 256.707C352.415 254.961 348.786 252.481 345.819 251.194C344.698 250.707 341.27 251.758 339.763 250.869L340.065 250.591C342.722 250.258 343.545 250.237 346.222 250.391C345.218 247.766 344.905 247.094 343.33 244.877C340.858 241.399 333.179 235.274 332.92 230.805C333.825 231.298 337.543 237.641 339.266 239.715C337.378 232.039 335.875 227.789 337.434 219.192Z" fill="#A2A19F" fill-opacity="0" data-target-opacity="0.917647" stroke="#A2A19F" stroke-width="0.5" stroke-linecap="round" stroke-linejoin="round"/>
<path d="M388.986 500.079C390.252 499.991 390.406 499.914 391.542 500.378C392.417 501.445 392.509 501.488 392.651 502.808C391.104 507.414 383.477 507.026 383.55 509.402C383.812 517.915 393.154 507.226 395.18 505.019L395.537 505.525C394.021 508.926 385.259 516.13 381.63 512.48C379.165 507.191 384.687 502.232 388.986 500.079ZM385.082 507.145C387.374 506.354 390.72 504.858 391.2 502.198C390.67 501.319 391.02 501.534 390.264 501.169C388.118 501.848 385.044 504.612 384.372 506.769L385.082 507.145Z" fill="#15100F" fill-opacity="0" data-target-opacity="1" stroke="#15100F" stroke-width="0.5" stroke-linecap="round" stroke-linejoin="round"/>
<path d="M351.057 200.875C356.826 210.866 361.849 224.602 362.13 236.205C362.287 242.694 359.687 248.714 358.37 254.876C359.127 258.454 361.573 263.271 363.001 267.025C364.248 270.302 365.467 275.499 366.653 278.296L365.849 278.993C364.597 275.831 363.449 270.907 362.096 267.448C360.977 264.588 358.399 258.358 357.898 255.678C357.474 253.404 360.034 245.645 360.611 242.655C363.049 230.043 356.567 213.096 350.711 201.94L351.057 200.875Z" fill="#93908F" fill-opacity="0" data-target-opacity="0.929412" stroke="#93908F" stroke-width="0.5" stroke-linecap="round" stroke-linejoin="round"/>
<path d="M465.544 503.894C463.867 503.982 463.567 504.055 461.971 503.672C460.155 504.336 459.848 506.07 458.463 506.354C457.876 503.768 471.604 491.293 474.885 489.716L475.012 490.111C473.008 493.189 471.711 495.304 470.119 498.697C469.416 500.121 468.234 502.294 467.87 503.764C470.794 505.41 472.191 503.08 474.333 500.931C474.06 502.424 473.408 503.253 472.613 504.547C467.992 507.303 467.513 502.294 465.885 508.765C465.241 511.317 465.628 511.705 465.567 514.085L464.742 514.261C462.75 512.519 464.907 506.385 465.544 503.894C466.242 502.869 469.075 496.878 469.324 495.719L468.806 495.661L467.183 497.062C465.859 497.907 462.585 500.843 462.297 502.355L462.75 502.923C464.139 503.061 464.4 503.096 465.544 503.894Z" fill="#15100F" fill-opacity="0" data-target-opacity="1" stroke="#15100F" stroke-width="0.5" stroke-linecap="round" stroke-linejoin="round"/>
<path d="M382.931 167.494L383.595 168.305C379.999 178.651 379.164 198.77 383.969 209.004C388.141 217.893 398.599 222.678 401.551 231.539C402.161 232.765 402.506 233.708 402.986 234.983C402.656 235.987 401.961 237.839 401.919 238.811L401.232 238.338C404.038 227.294 388.867 220.09 384.115 210.799C377.077 197.03 379.016 181.932 382.931 167.494Z" fill="#A2A19F" fill-opacity="0" data-target-opacity="0.905882" stroke="#A2A19F" stroke-width="0.5" stroke-linecap="round" stroke-linejoin="round"/>
<path d="M425.265 250.235C427.261 250.302 427.89 251.137 428.385 253.178C430.508 261.987 433.256 275.854 427.944 283.712L425.396 285.321L425.173 284.776C423.715 281.267 421.972 279.069 420.414 275.707C419.059 272.784 418.603 269.489 417.678 266.461C414.339 264.258 410.704 261.009 407.714 265.376L407.415 264.622L409.303 262.009L410.558 261.84C413.218 262.581 414.899 264.007 416.826 264.412L417.505 263.794C419.666 265.752 419.923 272.823 421.017 275.273C423.12 279.986 424.39 279.804 425.875 285.136C432.63 276.218 429.725 265.137 427.71 254.985C427.41 253.476 427.031 251.987 426.317 250.616L425.265 250.235Z" fill="#93908F" fill-opacity="0" data-target-opacity="0.92549" stroke="#93908F" stroke-width="0.5" stroke-linecap="round" stroke-linejoin="round"/>
<path d="M417.006 497.669C417.167 497.818 417.305 498.145 417.42 498.363C416.664 499.86 415.406 502.823 414.108 503.629C409.971 504.036 407.807 507.126 404.506 510.258C405.753 510.799 408.455 512.15 409.687 512.327C414.277 512.991 415.77 507.602 417.82 506.17L418.203 506.654C417.889 509.176 414.818 511.436 412.754 512.672C410.42 514.073 408.758 513.486 406.34 512.818C405.204 512.181 404.671 511.893 403.47 511.413C402.234 512.004 400.396 513.052 399.079 512.553C399.179 511.294 400 509.671 401.175 509.076C402.011 509.122 403.946 509.268 404.525 508.749C406.145 507.31 409.223 505.191 409.718 503.123L409.108 502.551C405.918 501.683 405.231 501.81 403.815 504.539L403.205 504.708L403.032 503.952C404.157 499.073 410.29 501.415 413.732 502.378C414.884 500.494 415.54 499.331 417.006 497.669Z" fill="#15100F" fill-opacity="0" data-target-opacity="0.976471" stroke="#15100F" stroke-width="0.5" stroke-linecap="round" stroke-linejoin="round"/>
<path d="M442.589 312.646C431.667 315.546 413.487 317.249 402.752 313.438C399.567 312.307 390.463 307.775 388.993 304.772L389.174 304.374C401.543 314.666 413.467 315.883 428.984 313.687C431.747 313.296 438.583 311.852 440.843 311.746L442.589 312.646Z" fill="#A2A19F" fill-opacity="0" data-target-opacity="0.027451" stroke="#A2A19F" stroke-width="0.5" stroke-linecap="round" stroke-linejoin="round"/>
<path d="M389.032 329.604C392.029 325.859 397.855 318.236 402.207 316.077L402.468 316.314C402.054 317.24 396.819 321.631 395.606 322.937C383.477 336.003 376.781 346.713 381.699 365.42L380.994 365.879C377.547 356.582 379.116 344.662 384.119 336.264C385.27 334.331 388.007 330.702 388.452 329.671C388.341 329.29 388.256 328.964 388.041 328.627C386.383 326.031 385.19 321.368 385.044 318.235C386.407 322.013 387.734 325.803 389.032 329.604Z" fill="#A2A19F" fill-opacity="0" data-target-opacity="0.909804" stroke="#A2A19F" stroke-width="0.5" stroke-linecap="round" stroke-linejoin="round"/>
<path d="M491.557 299.628C507.868 296.241 521.093 294.381 537.669 298.271C541.949 299.276 548.005 301.841 551.363 302.577L552.967 304.288C533.977 296.331 515.026 295.078 495.092 299.772C493.833 300.067 490.72 301.223 489.65 300.934C490.279 299.914 490.198 300.202 491.557 299.628Z" fill="#706968" fill-opacity="0" data-target-opacity="0.937255" stroke="#706968" stroke-width="0.5" stroke-linecap="round" stroke-linejoin="round"/>
<path d="M436.034 179.394L436.74 179.788C426.102 187.045 415.989 197.331 417.447 211.235C415.34 214.531 413.164 217.434 411 220.658C408.478 224.418 406.222 228.341 403.619 232.075L403.27 231.494C405.684 227.858 407.738 224.075 410.086 220.384C412.12 217.187 414.504 214.393 416.488 211.22C415.924 197.016 424.444 186.652 436.034 179.394Z" fill="#93908F" fill-opacity="0" data-target-opacity="0.882353" stroke="#93908F" stroke-width="0.5" stroke-linecap="round" stroke-linejoin="round"/>
<path d="M436.034 179.394C443.676 174.526 455.304 172.879 463.986 170.767C468.027 169.784 474.713 166.472 478.454 166.52C480.235 169.327 476.125 177.423 474.62 180.053L473.78 180.046C474.885 177.752 479.886 168.849 477.403 167.03C475.772 167.035 468.192 170.591 465.383 171.303C454.698 174.014 446.746 174.46 436.74 179.788L436.034 179.394Z" fill="#15100F" fill-opacity="0" data-target-opacity="0.909804" stroke="#15100F" stroke-width="0.5" stroke-linecap="round" stroke-linejoin="round"/>
<path d="M500.549 540.906L501.359 541.255C502.441 542.506 505.07 550.866 505.297 552.804L504.974 553.038C503.846 551.914 502.088 548.644 500.779 546.863C498.385 549.788 497.82 551.787 494.639 555.123C496.454 550.64 498.496 545.205 500.549 540.906Z" fill="#15100F" fill-opacity="0" data-target-opacity="1" stroke="#15100F" stroke-width="0.5" stroke-linecap="round" stroke-linejoin="round"/>
<path d="M443.775 503.741L445.932 504.551C444.044 506.209 442.14 507.855 440.221 509.483C443.1 510.672 447.256 512.772 450.139 510.208C451.263 509.206 451.275 507.717 452.53 506.627L453.186 506.75L453.228 507.306C449.866 514.595 445.399 513.39 439.312 510.565L438.279 511.452C437.339 512.261 436.326 513.49 435.159 512.507C435.585 510.776 441.607 506.059 443.775 503.741Z" fill="#15100F" fill-opacity="0" data-target-opacity="1" stroke="#15100F" stroke-width="0.5" stroke-linecap="round" stroke-linejoin="round"/>
<path d="M311.808 587.77C310.458 591.298 308.619 595.654 305.614 598.076C303.287 599.949 299.583 601.204 297.484 598.391C296.733 592.18 303.156 597.811 304.789 596.99C307.608 595.577 310.171 588.488 311.744 585.606L311.808 587.77Z" fill="#15100F" fill-opacity="0" data-target-opacity="1" stroke="#15100F" stroke-width="0.5" stroke-linecap="round" stroke-linejoin="round"/>
<path d="M396.42 366.906C399.87 361.029 404.594 356.524 408.586 351.18C416.254 340.921 421.393 330.039 424.455 317.642L424.824 317.681C424.824 319.221 424.478 320.779 424.068 322.256C419.194 339.666 407.638 353.488 396.949 367.421L396.42 366.906Z" fill="#858172" fill-opacity="0" data-target-opacity="0.87451" stroke="#858172" stroke-width="0.5" stroke-linecap="round" stroke-linejoin="round"/>
<path d="M314.337 578.052C315.823 573.761 320.016 566.261 318.68 562.45C317.831 561.306 316.852 561.248 315.421 560.861L315.343 560.458C317.387 559.936 323.586 560.323 326.405 560.124C324.497 560.926 322.957 561.364 321.842 563.217C319.114 567.75 317.618 573.074 315.658 578.006L314.337 578.052Z" fill="#15100F" fill-opacity="0" data-target-opacity="1" stroke="#15100F" stroke-width="0.5" stroke-linecap="round" stroke-linejoin="round"/>
<path d="M307.37 512.004C311.899 508.584 319.474 500.048 315.956 493.677C315.594 493.021 314.06 491.942 314.085 491.328C323.457 492.648 315.259 509.529 308.152 512.795L307.37 512.004Z" fill="#15100F" fill-opacity="0" data-target-opacity="0.988235" stroke="#15100F" stroke-width="0.5" stroke-linecap="round" stroke-linejoin="round"/>
<path d="M418.096 318.136L418.438 318.619C410.021 326.843 399.893 336.736 394.93 347.711L394.742 347.56L394.696 346.848C398.791 338.083 410.152 323.358 418.096 318.136Z" fill="#A2A19F" fill-opacity="0" data-target-opacity="0.898039" stroke="#A2A19F" stroke-width="0.5" stroke-linecap="round" stroke-linejoin="round"/>
<path d="M400.062 184.069C404.924 197.972 407.392 200.758 405.546 216.161L404.483 216.36C407.089 203.443 403.051 195.952 399.428 184.645L400.062 184.069Z" fill="#A2A19F" fill-opacity="0" data-target-opacity="0.94902" stroke="#A2A19F" stroke-width="0.5" stroke-linecap="round" stroke-linejoin="round"/>
<path d="M456.859 596.502C454.237 597.838 449.755 598.882 447.08 597.258C446.155 595.712 446.086 593.85 447.744 592.818C449.847 593.14 452.015 595.382 454.464 596.391C455.987 596.03 455.519 596.142 456.816 594.971L456.859 596.502Z" fill="#241C17" fill-opacity="0" data-target-opacity="1" stroke="#241C17" stroke-width="0.5" stroke-linecap="round" stroke-linejoin="round"/>
<path d="M387.013 312.261C387.063 310.597 386.928 309.15 387.685 307.714L388.36 307.176C388.751 309.873 388.168 312.189 386.506 314.326C382.917 318.946 371.727 326.631 366.519 329.038C368.003 326.628 383.248 318.255 385.7 313.809C385.7 313.809 386.871 312.427 387.013 312.261Z" fill="#93908F" fill-opacity="0" data-target-opacity="0.890196" stroke="#93908F" stroke-width="0.5" stroke-linecap="round" stroke-linejoin="round"/>
<path d="M443.775 503.741C447.072 500.54 449.34 498.202 452.034 494.491L454.237 495.538C451.654 499.192 449.352 501.664 445.932 504.551L443.775 503.741Z" fill="#241C17" fill-opacity="0" data-target-opacity="1" stroke="#241C17" stroke-width="0.5" stroke-linecap="round" stroke-linejoin="round"/>
<path d="M421.074 292.703C423.995 293.952 426.286 301.55 428.639 305.444C424.697 302.389 423.434 294.722 421.619 294.121C419.19 295.218 417.305 299.664 415.766 302.133C413.556 305.168 410.597 308.796 407.956 311.488L407.35 311.433C407.665 310.375 418.161 298.727 418.718 295.489C418.817 294.902 420.51 293.227 421.074 292.703Z" fill="#93908F" fill-opacity="0" data-target-opacity="0.843137" stroke="#93908F" stroke-width="0.5" stroke-linecap="round" stroke-linejoin="round"/>
<path d="M387.128 255.227L387.692 255.508C381.784 270.71 391.384 276.804 388.372 286.769L387.512 287.019C390.26 275.492 380.324 269.817 387.128 255.227Z" fill="#A2A19F" fill-opacity="0" data-target-opacity="0.972549" stroke="#A2A19F" stroke-width="0.5" stroke-linecap="round" stroke-linejoin="round"/>
<path d="M521.792 294.944C533.544 293.792 542.002 296.005 552.706 300.797L552.261 301.371C545.007 298.629 537.98 296.375 530.266 295.308C527.15 294.877 524.835 295.771 521.792 294.944Z" fill="#706968" fill-opacity="0" data-target-opacity="0.960784" stroke="#706968" stroke-width="0.5" stroke-linecap="round" stroke-linejoin="round"/>
<path d="M385.455 161.774C391.818 166.176 397.26 176.878 400.062 184.069L399.428 184.645C396.366 175.947 391.192 169.177 385.616 162.056C384.86 164.064 383.95 166.213 383.595 168.305L382.931 167.494C383.808 165.025 384.184 164.041 385.455 161.774Z" fill="#A2A19F" fill-opacity="0" data-target-opacity="0.803922" stroke="#A2A19F" stroke-width="0.5" stroke-linecap="round" stroke-linejoin="round"/>
<path d="M452.034 494.491C452.28 492.936 452.315 492.533 451.724 491.071C448.151 488.104 442.858 495.792 440.954 495.922L441.154 495.999C441.089 491.071 456.509 484.024 454.237 495.538L452.034 494.491Z" fill="#15100F" fill-opacity="0" data-target-opacity="1" stroke="#15100F" stroke-width="0.5" stroke-linecap="round" stroke-linejoin="round"/>
<path d="M334.227 272.438L334.808 272.233C337.702 272.519 343.46 276.76 346.641 277.72C351.545 279.2 364.582 279.389 366.289 285.22C359.11 279.361 355.3 280.949 346.931 278.33C343.084 277.126 338.111 274.318 334.227 272.438Z" fill="#93908F" fill-opacity="0" data-target-opacity="0.929412" stroke="#93908F" stroke-width="0.5" stroke-linecap="round" stroke-linejoin="round"/>
<path d="M222.24 547.45C223.619 546.644 225.391 547.112 226.193 548.494C226.995 549.876 226.523 551.649 225.14 552.447C223.761 553.242 221.998 552.774 221.198 551.396C220.399 550.018 220.864 548.252 222.24 547.45Z" fill="#241C17" fill-opacity="0" data-target-opacity="1" stroke="#241C17" stroke-width="0.5" stroke-linecap="round" stroke-linejoin="round"/>
<path d="M392.11 381.074C393.875 384.956 393.998 389.132 394.865 393.415C394.942 398.213 398.607 407.133 397.771 410.637C395.498 404.519 392.612 387.819 392.11 381.074Z" fill="#B6ACB8" fill-opacity="0" data-target-opacity="0.027451" stroke="#B6ACB8" stroke-width="0.5" stroke-linecap="round" stroke-linejoin="round"/>
<path d="M384.534 299.016L385.551 299.27C381.683 303.094 366.276 308.556 360.907 308.536C361.927 307.153 371.818 305.274 374.468 304.035C378.028 302.37 380.598 301.863 384.184 299.271L384.534 299.016Z" fill="#C4C1BF" fill-opacity="0" data-target-opacity="0.0352941" stroke="#C4C1BF" stroke-width="0.5" stroke-linecap="round" stroke-linejoin="round"/>
<path d="M673.527 560.991C669.485 563.302 672.283 568.349 667.075 567.524L666.546 566.687C666.619 562.622 670.272 561.294 673.523 560.197L673.527 560.991Z" fill="#15100F" fill-opacity="0" data-target-opacity="1" stroke="#15100F" stroke-width="0.5" stroke-linecap="round" stroke-linejoin="round"/>
<path d="M103.185 574.72C105.472 580.013 106.937 583.387 113.443 582.239L114.591 582.692C110.988 584.654 106.616 583.671 103.147 581.955L103.185 574.72Z" fill="#010001" fill-opacity="0" data-target-opacity="0.988235" stroke="#010001" stroke-width="0.5" stroke-linecap="round" stroke-linejoin="round"/>
<path d="M182.997 561.137C180.057 563.052 181.277 567.578 177.501 567.911C176.464 567.363 176.418 567.424 175.833 566.361C176.056 563.359 180.113 561.083 182.764 560.431L182.997 561.137Z" fill="#15100F" fill-opacity="0" data-target-opacity="1" stroke="#15100F" stroke-width="0.5" stroke-linecap="round" stroke-linejoin="round"/>
<path d="M305.561 495.304C305.973 496.014 306.468 496.962 306.968 497.577C306.05 499.684 304.902 502.152 304.137 504.278L301.13 503.86C302.095 500.068 303.374 498.509 305.561 495.304Z" fill="#241C17" fill-opacity="0" data-target-opacity="1" stroke="#241C17" stroke-width="0.5" stroke-linecap="round" stroke-linejoin="round"/>
<path d="M301.13 503.86L304.137 504.278C303.389 507.318 302.378 510.799 305.875 512.215L307.37 512.004L308.152 512.795C300.832 514.557 300.782 509.529 301.13 503.86Z" fill="#15100F" fill-opacity="0" data-target-opacity="1" stroke="#15100F" stroke-width="0.5" stroke-linecap="round" stroke-linejoin="round"/>
<path d="M708.052 575.695C711.176 580.178 712.635 583.702 718.806 582.082L719.278 582.792C716.91 583.779 712.355 584.742 710.252 582.942C708.06 581.073 708.267 578.328 708.052 575.695Z" fill="#010101" fill-opacity="0" data-target-opacity="0.988235" stroke="#010101" stroke-width="0.5" stroke-linecap="round" stroke-linejoin="round"/>
<path d="M394.865 393.415L395.736 395.469C396.327 397.012 400.58 413.808 400.641 415.266C399.785 415.662 400.185 415.673 399.417 415.527C398.266 413.7 400.131 412.652 398.596 410.637H397.771C398.607 407.133 394.942 398.213 394.865 393.415Z" fill="#141D18" fill-opacity="0" data-target-opacity="0.968627" stroke="#141D18" stroke-width="0.5" stroke-linecap="round" stroke-linejoin="round"/>
<path d="M305.561 495.304C307.699 493.339 314.78 487.022 317.685 489.536L317.743 490.196C314.737 490.967 314.541 489.221 311.013 492.499C308.969 494.395 308.454 495.124 306.968 497.577C306.468 496.962 305.973 496.014 305.561 495.304Z" fill="#15100F" fill-opacity="0" data-target-opacity="0.980392" stroke="#15100F" stroke-width="0.5" stroke-linecap="round" stroke-linejoin="round"/>
<path d="M407.714 265.376C404.786 271.676 401.628 275.199 396.454 279.715C395.64 280.425 394.478 282.123 393.568 282.315C394.443 279.582 400.841 274.573 403.04 271.695C405.408 268.594 405.527 268.416 407.415 264.622L407.714 265.376Z" fill="#7AA3BF" fill-opacity="0" data-target-opacity="0.890196" stroke="#7AA3BF" stroke-width="0.5" stroke-linecap="round" stroke-linejoin="round"/>
<path d="M417.067 249.995C422.214 252.84 419.877 251.599 424.862 250.335L425.265 250.235L426.317 250.616C422.417 251.198 421.984 252.884 420.261 256.149C420.418 254.813 420.429 254.629 420.276 253.302C419.524 251.968 418.131 251.59 416.653 250.92C413.31 253.058 413.84 253.415 411.276 256.123L410.827 255.87C410.819 253.231 415.064 251.116 417.067 249.995Z" fill="#A2A19F" fill-opacity="0" data-target-opacity="0.819608" stroke="#A2A19F" stroke-width="0.5" stroke-linecap="round" stroke-linejoin="round"/>
<path d="M397.77 410.637H398.596C400.131 412.653 398.266 413.7 399.417 415.527C400.184 415.673 399.785 415.662 400.641 415.266C401.347 418.364 401.589 419.496 401.708 422.632C399.528 419.538 398.841 417.466 397.736 413.846C397.659 412.913 397.402 411.394 397.77 410.637Z" fill="#C4C1BF" fill-opacity="0" data-target-opacity="1" stroke="#C4C1BF" stroke-width="0.5" stroke-linecap="round" stroke-linejoin="round"/>
<path d="M716.649 559.425L721.923 560.235L721.98 566.952C720.219 563.321 719.942 562.695 716.573 560.465L716.649 559.425Z" fill="#15100F" fill-opacity="0" data-target-opacity="1" stroke="#15100F" stroke-width="0.5" stroke-linecap="round" stroke-linejoin="round"/>
<path d="M111.411 559.402C113.141 559.694 114.807 559.955 116.516 560.366C116.662 562.599 116.742 564.722 117.191 566.921C115.004 563.214 114.959 562.55 111.349 560.462L111.411 559.402Z" fill="#15100F" fill-opacity="0" data-target-opacity="1" stroke="#15100F" stroke-width="0.5" stroke-linecap="round" stroke-linejoin="round"/>
<path d="M366.653 278.296C368.928 284.617 371.048 287.218 374.018 292.814L373.316 293.3C371.121 288.485 368.477 285.434 365.849 278.993L366.653 278.296Z" fill="#A2A19F" fill-opacity="0" data-target-opacity="0.705882" stroke="#A2A19F" stroke-width="0.5" stroke-linecap="round" stroke-linejoin="round"/>
<path d="M341.454 203.722L341.662 205.856C340.308 210.318 339.177 214.843 338.272 219.416L338.016 219.083L337.434 219.192C337.45 216.482 340.58 206.545 341.454 203.722Z" fill="#706968" fill-opacity="0" data-target-opacity="0.909804" stroke="#706968" stroke-width="0.5" stroke-linecap="round" stroke-linejoin="round"/>
<path d="M349.356 237.354C351.304 238.663 354.065 248.51 355.209 251.609C352.871 250.427 350.259 240.29 349.356 237.354Z" fill="#A2A19F" fill-opacity="0" data-target-opacity="0.87451" stroke="#A2A19F" stroke-width="0.5" stroke-linecap="round" stroke-linejoin="round"/>
<path d="M341.847 256.903C344.898 260.089 348.561 263.725 351.447 266.983L350.006 266.85C347.003 263.902 344.395 260.704 341.475 257.685L341.847 256.903Z" fill="#A2A19F" fill-opacity="0" data-target-opacity="0.854902" stroke="#A2A19F" stroke-width="0.5" stroke-linecap="round" stroke-linejoin="round"/>
<path d="M381.699 365.42C383.282 368.633 383.897 370.361 386.502 372.929L387.404 372.805L388.602 372.734C387.78 373.367 387.5 373.707 386.468 373.842C383.482 372.631 382.273 368.808 380.994 365.879L381.699 365.42Z" fill="#A2A19F" fill-opacity="0" data-target-opacity="0.831373" stroke="#A2A19F" stroke-width="0.5" stroke-linecap="round" stroke-linejoin="round"/>
<path d="M392.444 368.38C394.163 365.561 396.055 362.363 398.177 359.859C397.486 363.107 393.184 367.981 392.336 370.138L392.444 368.38Z" fill="#A2A19F" fill-opacity="0" data-target-opacity="0.847059" stroke="#A2A19F" stroke-width="0.5" stroke-linecap="round" stroke-linejoin="round"/>
<path d="M552.706 300.797C554.452 301.605 557.415 302.646 556.272 305.11C554.863 305.423 554.41 305.126 552.967 304.288L551.363 302.577C553.658 303.58 555.558 304.348 557.91 305.194C555.964 303.527 554.468 302.693 552.261 301.371L552.706 300.797Z" fill="#15100F" fill-opacity="0" data-target-opacity="0.941176" stroke="#15100F" stroke-width="0.5" stroke-linecap="round" stroke-linejoin="round"/>
<path d="M341.475 257.685C339.921 256.204 336.422 252.604 335.711 250.672L336.205 250.618C337.954 251.815 340.417 255.106 341.847 256.903L341.475 257.685Z" fill="#A2A19F" fill-opacity="0" data-target-opacity="0.32549" stroke="#A2A19F" stroke-width="0.5" stroke-linecap="round" stroke-linejoin="round"/>
<path d="M368.049 288.825L368.529 288.883C369.619 289.503 373.456 296.382 374.293 298.032C371.321 296.669 370.25 292.242 368.281 289.178L368.049 288.825Z" fill="#C4C1BF" fill-opacity="0" data-target-opacity="0.384314" stroke="#C4C1BF" stroke-width="0.5" stroke-linecap="round" stroke-linejoin="round"/>
<path d="M391.649 581.418C393.246 580.839 395.165 579.925 396.769 580.082L396.803 580.171C395.706 581.48 393.484 582.547 391.922 583.234C391.71 582.627 391.71 582.071 391.649 581.418Z" fill="#15100F" fill-opacity="0" data-target-opacity="1" stroke="#15100F" stroke-width="0.5" stroke-linecap="round" stroke-linejoin="round"/>
<path d="M357.829 232.483C358.336 234.131 358.177 241.381 357.91 243.289C356.868 241.154 356.999 234.604 357.829 232.483Z" fill="#141D18" fill-opacity="0" data-target-opacity="0.819608" stroke="#141D18" stroke-width="0.5" stroke-linecap="round" stroke-linejoin="round"/>
<path d="M355.728 271.58C357.618 273.276 360.068 275.326 361.607 277.275L361.35 277.399C358.97 276.183 357.234 274.237 355.32 272.346L355.728 271.58Z" fill="#C4C1BF" fill-opacity="0" data-target-opacity="0.862745" stroke="#C4C1BF" stroke-width="0.5" stroke-linecap="round" stroke-linejoin="round"/>
<path d="M346.786 227.783C348.366 229.438 349.089 233.922 348.921 236.172C347.315 233.108 346.961 231.176 346.786 227.783Z" fill="#A2A19F" fill-opacity="0" data-target-opacity="0.870588" stroke="#A2A19F" stroke-width="0.5" stroke-linecap="round" stroke-linejoin="round"/>
<path d="M387.136 293.679L389.093 292.553C388.406 294.228 386.771 298.019 385.551 299.27L384.534 299.016C385.735 297.327 386.852 295.749 387.136 293.679Z" fill="#C4C1BF" fill-opacity="0" data-target-opacity="0.952941" stroke="#C4C1BF" stroke-width="0.5" stroke-linecap="round" stroke-linejoin="round"/>
<path d="M638.694 581.737C640.828 581.034 643.169 580.209 645.322 579.653C642.977 581.376 641.784 582.239 639.135 583.449L638.694 581.737Z" fill="#15100F" fill-opacity="0" data-target-opacity="0.984314" stroke="#15100F" stroke-width="0.5" stroke-linecap="round" stroke-linejoin="round"/>
<path d="M374.018 292.814C375.366 295.039 376.553 297.002 377.739 299.314C375.087 296.831 375.204 296.218 373.316 293.3L374.018 292.814Z" fill="#A2A19F" fill-opacity="0" data-target-opacity="0.239216" stroke="#A2A19F" stroke-width="0.5" stroke-linecap="round" stroke-linejoin="round"/>
<path d="M356.506 222.845C357.734 225.341 357.761 229.107 357.596 231.833C356.75 227.844 356.095 227.206 356.506 222.845Z" fill="#A2A19F" fill-opacity="0" data-target-opacity="0.737255" stroke="#A2A19F" stroke-width="0.5" stroke-linecap="round" stroke-linejoin="round"/>
<path d="M409.614 255.857C411.023 257.651 410.685 259.578 410.558 261.84L409.303 262.009C409.514 260.304 409.453 259.035 409.426 257.332L409.614 255.857Z" fill="#4D5250" fill-opacity="0" data-target-opacity="1" stroke="#4D5250" stroke-width="0.5" stroke-linecap="round" stroke-linejoin="round"/>
<path d="M361.004 332.078C362.533 330.332 364.178 329.196 366.519 329.038C365.597 330.41 362.635 331.814 361.004 332.078Z" fill="#93908F" fill-opacity="0" data-target-opacity="0.0980392" stroke="#93908F" stroke-width="0.5" stroke-linecap="round" stroke-linejoin="round"/>
<path d="M409.426 257.332C408.567 256.379 406.609 253.962 406.701 252.714C408.033 253.335 408.72 254.612 409.614 255.857L409.426 257.332Z" fill="#C4C1BF" fill-opacity="0" data-target-opacity="0.854902" stroke="#C4C1BF" stroke-width="0.5" stroke-linecap="round" stroke-linejoin="round"/>
<path d="M348.294 198.136C347.607 197.061 346.192 195.28 346.493 194.083C347.654 195.081 348.018 196.001 348.747 197.344L348.294 198.136Z" fill="#C4C1BF" fill-opacity="0" data-target-opacity="0.635294" stroke="#C4C1BF" stroke-width="0.5" stroke-linecap="round" stroke-linejoin="round"/>
<path d="M352.369 269.192L353.598 269.282C354.256 270.019 355.016 270.927 355.728 271.58L355.32 272.346C354.071 271.567 353.295 270.37 352.369 269.192Z" fill="#C4C1BF" fill-opacity="0" data-target-opacity="0.654902" stroke="#C4C1BF" stroke-width="0.5" stroke-linecap="round" stroke-linejoin="round"/>
<path d="M348.733 310.15C349.871 309.156 350.875 309.029 352.339 309.505L352.201 309.898C350.944 310.328 350.483 310.406 349.161 310.627L348.733 310.15Z" fill="#A2A19F" fill-opacity="0" data-target-opacity="0.101961" stroke="#A2A19F" stroke-width="0.5" stroke-linecap="round" stroke-linejoin="round"/>
<path d="M348.294 198.136L348.747 197.344C349.5 198.625 350.085 199.746 351.057 200.875L350.711 201.94C349.892 200.742 349.073 199.375 348.294 198.136Z" fill="#A2A19F" fill-opacity="0" data-target-opacity="0.772549" stroke="#A2A19F" stroke-width="0.5" stroke-linecap="round" stroke-linejoin="round"/>
<path d="M351.447 266.983C352.139 267.72 352.941 268.532 353.598 269.282L352.369 269.192L350.006 266.85L351.447 266.983Z" fill="#A2A19F" fill-opacity="0" data-target-opacity="0.462745" stroke="#A2A19F" stroke-width="0.5" stroke-linecap="round" stroke-linejoin="round"/>
<path d="M341.454 203.722C341.768 202.608 341.793 202.02 342.451 201.133C342.662 202.868 342.147 204.192 341.662 205.856L341.454 203.722Z" fill="#A2A19F" fill-opacity="0" data-target-opacity="0.588235" stroke="#A2A19F" stroke-width="0.5" stroke-linecap="round" stroke-linejoin="round"/>
</svg>
